<?xml version="1.0" encoding="UTF-8" standalone="no"?><!DOCTYPE svg PUBLIC "-//W3C//DTD SVG 1.1//EN" "http://www.w3.org/Graphics/SVG/1.1/DTD/svg11.dtd"><svg width="100%" height="100%" viewBox="0 0 7780 8892" version="1.1" xmlns="http://www.w3.org/2000/svg" xmlns:xlink="http://www.w3.org/1999/xlink" xml:space="preserve" xmlns:serif="http://www.serif.com/" style="fill-rule:evenodd;clip-rule:evenodd;stroke-linejoin:round;stroke-miterlimit:2;"><path id="members" d="M2765.62,93.75c135.417,-126.738 345.488,-125 480.904,1.738c479.167,449.65 928.817,934.025 1348.96,1458.33c190.97,-250 407.983,-522.571 642.358,-744.792c137.154,-128.475 348.958,-128.475 486.112,1.734c600.696,572.916 1109.38,1329.86 1467.01,2048.61c352.433,708.333 586.808,1432.29 586.808,1942.71c0,2215.28 -1732.64,4086.81 -3888.89,4086.81c-2180.55,-0.001 -3888.89,-1873.26 -3888.89,-4088.54c0,-666.667 309.029,-1480.9 788.196,-2286.46c484.375,-817.708 1168.4,-1670.14 1977.43,-2420.14Zm1152.78,7128.46c439.233,0 828.125,-121.525 1194.44,-364.583c730.904,-510.417 927.083,-1531.25 487.85,-2333.33c-78.125,-156.25 -277.779,-166.667 -390.625,-34.721l-437.5,508.679c-114.583,131.946 -321.184,128.475 -428.821,-8.679c-286.458,-364.584 -798.612,-1015.62 -1090.28,-1385.42c-109.375,-138.887 -317.708,-140.625 -428.817,-1.737c-586.808,737.85 -881.946,1203.12 -881.946,1725.69c1.738,1189.24 880.209,1894.1 1975.7,1894.1Z" style="fill:#9fa4a8;fill-rule:nonzero;stroke:#9fa4a8;stroke-width:4.17px;"/></svg>