<?xml version="1.0" encoding="UTF-8" standalone="no"?><!DOCTYPE svg PUBLIC "-//W3C//DTD SVG 1.1//EN" "http://www.w3.org/Graphics/SVG/1.1/DTD/svg11.dtd"><svg width="100%" height="100%" viewBox="0 0 14767 14767" version="1.1" xmlns="http://www.w3.org/2000/svg" xmlns:xlink="http://www.w3.org/1999/xlink" xml:space="preserve" xmlns:serif="http://www.serif.com/" style="fill-rule:evenodd;clip-rule:evenodd;stroke-linejoin:round;stroke-miterlimit:2;"><g id="path78"><path d="M10356.8,3770.19c-758.017,468.177 -1315.36,1449.12 -1315.36,1449.12c-0,0 -216.232,-690.556 -223.001,-1114.69c-7.003,-442.034 0.466,-501.091 200.747,-1181.61c0,0 -574.154,341.194 -899.085,834.893c-237.94,361.579 -483.272,1149.32 -483.272,1149.32c-0,-0 -312.015,-1471.45 -111.423,-2407.73c200.592,-936.355 557.347,-1761.29 557.347,-1761.29c-0,-0 -1761.21,468.177 -2675.31,3589.34c-914.024,3121.24 646.517,5395.29 646.517,5395.29c-0,0 -1181.53,-958.687 -1627.46,-2296.38c-445.846,-1337.62 -22.253,-2541.48 -22.253,-2541.48c-0,0 -2140.3,1761.21 -1895.04,4079.77c205.182,1939.86 2188.23,4330.86 2831.09,5060.86l3911.55,0c490.197,-359.089 1731.64,-2163.25 1885.24,-3879.25c153.673,-1715.92 -370.761,-3027.09 -312.015,-4057.51c94.694,-1661.77 751.792,-2116.33 1449.12,-2786.81c0,-0 -1159.36,-0 -1917.37,468.178Z" style="fill:none;fill-rule:nonzero;stroke:#959ba7;stroke-width:416.67px;"/></g></svg>