<?xml version="1.0" encoding="UTF-8" standalone="no"?><!DOCTYPE svg PUBLIC "-//W3C//DTD SVG 1.1//EN" "http://www.w3.org/Graphics/SVG/1.1/DTD/svg11.dtd"><svg width="100%" height="100%" viewBox="0 0 11113 8892" version="1.1" xmlns="http://www.w3.org/2000/svg" xmlns:xlink="http://www.w3.org/1999/xlink" xml:space="preserve" xmlns:serif="http://www.serif.com/" style="fill-rule:evenodd;clip-rule:evenodd;stroke-linejoin:round;stroke-miterlimit:2;"><path d="M2222.22,2222.22c-0,-914.304 752.362,-1666.67 1666.67,-1666.67c914.308,0 1666.67,752.363 1666.67,1666.67c0,914.308 -752.358,1666.67 -1666.67,1666.67c-914.305,-0 -1666.67,-752.359 -1666.67,-1666.67Zm2460.07,3611.11c1388.89,0 2517.36,1116.32 2539.93,2500l-6666.67,0c20.834,-1383.68 1149.31,-2500 2539.93,-2500l1586.8,0Zm-793.404,-1388.89c1219.08,-0 2222.22,-1003.15 2222.22,-2222.22c-0,-1219.08 -1003.15,-2222.22 -2222.22,-2222.22c-1219.08,0 -2222.22,1003.15 -2222.22,2222.22c-0,1219.08 1003.15,2222.22 2222.22,2222.22Zm-793.4,833.333c-1710.07,0 -3095.49,1385.42 -3095.49,3095.48c0,284.725 230.904,515.625 515.625,515.625l6746.54,-0c284.721,-0 515.625,-230.9 515.625,-515.625c-0,-1710.07 -1385.42,-3095.48 -3095.49,-3095.48l-1586.82,0Zm7482.62,3611.11c295.137,-0 532.987,-239.584 532.987,-532.984c0,-1546.88 -1253.48,-2800.35 -2800.35,-2800.35l-1065.97,0c-76.387,0 -152.779,3.475 -229.166,8.684c196.179,163.191 375,345.483 532.987,546.875l762.15,-0c1232.64,-0 2232.64,993.054 2244.79,2222.22l-2222.22,0l-0,39.93c-0,187.5 -48.613,362.85 -131.946,515.625l2376.74,-0Zm-3078.12,-4444.46c1074.65,0 1944.44,-869.791 1944.44,-1944.45c0,-1074.65 -869.791,-1944.44 -1944.44,-1944.44c-430.555,-0 -828.125,140.625 -1151.04,376.737c90.279,170.138 161.458,352.429 215.279,541.667c246.525,-225.696 574.65,-362.846 935.763,-362.846c767.362,-0 1388.89,621.525 1388.89,1388.89c0,767.363 -621.525,1388.89 -1388.89,1388.89c-437.5,-0 -826.388,-201.388 -1081.6,-517.358c-81.6,178.816 -180.559,345.483 -295.142,501.733c352.433,352.433 838.542,571.183 1376.74,571.183Z" style="fill:#a72920;fill-rule:nonzero;stroke:#a72920;stroke-width:17.38px;"/></svg>